<svg xmlns="http://www.w3.org/2000/svg" xmlns:xlink="http://www.w3.org/1999/xlink" width="18" height="18" viewBox="0 0 18 18">
    <defs>
        <path id="a" d="M0 0h18v18H0z"/>
    </defs>
    <g fill="none" fill-rule="evenodd">
        <mask id="b" fill="#fff">
            <use xlink:href="#a"/>
        </mask>
        <path fill="#FFF" d="M14.793 4.356a1.15 1.15 0 0 1-1.149-1.149V.765l3.59 3.591h-2.441zm-.623 6.941H3.83a.765.765 0 1 1 0-1.532h10.34a.766.766 0 0 1 0 1.532zm-.563 3.064H4.393a.766.766 0 0 1 0-1.531h9.214a.766.766 0 1 1 0 1.531zM4.393 6.702h9.214a.766.766 0 1 1 0 1.532H4.393a.766.766 0 0 1 0-1.532zm13.382-2.888L14.186.224A.77.77 0 0 0 13.644 0H1.915A1.917 1.917 0 0 0 0 1.915v14.17C0 17.14.859 18 1.915 18h14.17C17.141 18 18 17.14 18 16.085V4.356a.767.767 0 0 0-.225-.542z" mask="url(#b)"/>
    </g>
</svg>
