<?xml version="1.0" encoding="UTF-8"?>
<svg width="570px" height="138px" viewBox="0 0 570 138" xmlns="http://www.w3.org/2000/svg" xmlns:xlink="http://www.w3.org/1999/xlink" version="1.1">
 <!-- Generated by Pixelmator Pro 1.5.4 -->
 <path id="路徑" d="M135.76 0.92 L1.31 0.92 C0.87 0.92 0.51 1.28 0.51 1.72 L0.51 110.15 C0.5 110.53 0.77 110.87 1.15 110.95 3.25 111.33 10.35 112.6 19.37 114.22 22.18 98.82 25.11 82.86 26.32 76.56 27.85 68.54 30.01 49.81 42.36 49.81 41.5 49.81 29.75 49.41 23.26 36.81 20.13 30.73 16.48 17.98 15.49 14.43 15.47 14.37 15.46 14.3 15.46 14.24 15.46 13.84 15.79 13.51 16.19 13.51 21.48 13.52 47.94 13.56 81.72 13.56 104.67 13.56 126.79 30.11 123.75 57.45 121.08 81.52 105.41 99.1 83.62 99.1 L63.4 99.1 C63.03 99.1 62.72 99.37 62.68 99.74 L59 121.39 C65.45 122.57 70.71 123.54 73.51 124.08 80.61 125.45 95.32 128.26 99.29 136.71 99.5 137.09 99.99 137.23 100.37 137.02 100.55 136.92 100.68 136.76 100.74 136.56 101.74 132.28 104.71 125.4 113.25 120.97 119.56 117.69 133.07 113.81 136 113.02 136.33 112.92 136.56 112.62 136.56 112.27 L136.56 1.72 C136.56 1.28 136.2 0.92 135.76 0.92 Z" fill="#ffffff" fill-opacity="1" stroke="none"/>
 <path id="路徑-1" d="M103.08 58.69 L92.92 58.69 94.61 48.62 100.91 48.62 C101.15 48.62 101.36 48.45 101.4 48.21 L103.53 35.71 C103.6 35.45 103.44 35.18 103.17 35.11 103.14 35.1 103.11 35.1 103.08 35.1 L96.88 35.1 98.31 26.25 C98.38 25.85 98.11 25.47 97.72 25.4 97.68 25.39 97.63 25.39 97.59 25.39 L85.43 25.39 C85.07 25.39 84.76 25.65 84.7 26.01 L83.21 35.1 72.95 35.1 74.45 26.22 C74.52 25.82 74.25 25.44 73.85 25.38 73.81 25.37 73.76 25.37 73.72 25.37 L61.57 25.37 C61.21 25.37 60.91 25.63 60.85 25.98 L59.31 35.1 46.84 35.1 C46.57 35.1 46.35 35.32 46.35 35.59 L46.35 35.6 C46.35 41.9 50.88 47.29 57.08 48.38 L55.36 58.69 46.83 58.69 C46.56 58.69 46.34 58.91 46.34 59.18 L46.34 59.19 C46.34 64.04 49.04 68.48 53.35 70.71 L51.63 81.05 C51.57 81.46 51.85 81.84 52.26 81.9 52.29 81.9 52.33 81.91 52.36 81.91 L64.52 81.91 C64.88 81.91 65.19 81.65 65.24 81.3 L66.76 72.19 77 72.19 75.52 81.07 C75.45 81.47 75.73 81.85 76.13 81.92 76.17 81.93 76.21 81.93 76.24 81.93 L88.4 81.93 C88.76 81.93 89.07 81.67 89.13 81.32 L90.65 72.18 100.88 72.18 C101.12 72.18 101.32 72.01 101.37 71.77 L103.5 59.27 C103.55 59.01 103.37 58.75 103.11 58.7 103.11 58.69 103.1 58.69 103.08 58.69 Z M69.06 58.69 L70.71 48.62 80.95 48.62 79.26 58.69 Z" fill="#ffffff" fill-opacity="1" stroke="none"/>
 <path id="路徑-2" d="M186.98 80.27 C185.61 86.8 183.31 93.09 180.14 98.96 L174.07 95.08 C177.02 90.04 179.14 84.55 180.34 78.84 Z M175.43 63.73 L175.43 57 182.59 57 C181.81 54.76 180.84 52.59 179.7 50.51 L186.12 48.05 C187.31 50.97 188.32 53.96 189.16 57 L195.36 57 C196.35 54.11 197.27 51.15 198.05 48.05 L204.6 50.38 C203.88 52.65 203.01 54.86 201.99 57 L208.9 57 208.9 63.73 195.96 63.73 195.96 69.44 207.74 69.44 207.74 76.14 195.96 76.14 195.96 101.18 188.63 101.18 188.63 76.11 176.57 76.11 176.57 69.41 188.63 69.41 188.63 63.73 Z M188.32 40.99 C187.52 39.31 186.61 37.68 185.58 36.12 L193.19 34.85 C194.04 36.69 194.78 38.73 195.66 40.99 L208.49 40.99 208.49 47.76 176.12 47.76 176.12 40.99 Z M207.4 90.49 L201.27 92.88 C200.2 88.53 198.87 84.24 197.29 80.05 L203.36 78.46 C204.9 82.4 206.24 86.42 207.36 90.5 L207.4 90.5 Z M238.65 42.69 C232.23 44.74 225.56 45.95 218.83 46.28 L218.83 57.21 240.13 57.21 240.13 64.19 233.64 64.19 233.64 100.93 226.31 100.93 226.31 64.19 218.77 64.19 218.77 70.82 C218.42 83.37 215.67 93.31 210.45 100.78 L205.16 95.22 C209.18 89.36 211.37 81.25 211.65 70.82 L211.65 40.28 C219.61 40.25 227.51 38.85 234.99 36.12 Z" fill="#ffffff" fill-opacity="1" stroke="none"/>
 <path id="路徑-3" d="M288.2 59.4 L267.47 59.4 267.47 100.79 260.14 100.79 260.14 37.75 288.2 37.75 Z M281.01 43.11 L267.49 43.11 267.49 45.93 281.01 45.93 Z M267.49 54.04 L281.01 54.04 281.01 50.86 267.49 50.86 Z M272.08 68.71 L272.08 62.5 307.86 62.5 307.86 68.71 303.21 68.71 303.21 86.83 308.85 86.83 308.85 93.04 303.21 93.04 303.21 99.6 296.72 99.6 296.72 93.04 271.42 93.04 271.42 86.83 276.56 86.83 276.56 68.71 Z M283.07 68.71 L283.07 71.6 296.75 71.6 296.75 68.71 Z M296.76 79.28 L296.76 76.45 283.05 76.45 283.05 79.27 Z M296.76 86.83 L296.76 84.15 283.05 84.15 283.05 86.83 Z M293.16 59.47 L293.16 37.75 320.91 37.75 320.91 93.88 C320.91 98.4 318.52 100.65 313.75 100.65 311.49 100.65 309.24 100.51 307.06 100.36 L305.37 93.8 C307.28 94.07 309.22 94.22 311.15 94.23 312.7 94.23 313.54 93.31 313.54 91.61 L313.54 59.46 Z M313.61 43.25 L300.33 43.25 300.33 45.93 313.59 45.93 Z M300.33 54.11 L313.59 54.11 313.59 50.87 300.33 50.87 Z" fill="#ffffff" fill-opacity="1" stroke="none"/>
 <path id="路徑-4" d="M392.95 48.57 L392.39 54.77 402.9 54.77 402.9 60.55 391.82 60.55 391.27 66.69 351.11 66.76 352.02 60.62 342.08 60.62 342.08 54.84 352.87 54.84 353.73 48.62 Z M394.12 69.02 L394.16 92.29 387.39 92.29 C392.05 93.11 396.67 94.18 401.22 95.47 L398.9 101.33 C391.97 98.78 384.85 96.81 377.59 95.44 L379.28 92.26 365.18 92.26 367.45 95.29 C362.51 97.76 355.4 99.82 346.17 101.46 L342.85 95.75 C348.61 95.04 354.31 93.91 359.9 92.36 L350.95 92.36 350.91 69.09 Z M402.01 52.71 L395.1 52.71 395.1 46.02 349.82 46.09 349.82 52.79 342.9 52.79 342.9 40.32 368.71 40.27 C368.19 38.99 367.6 37.75 366.94 36.54 L374.34 35.25 C374.98 36.73 375.61 38.43 376.25 40.26 L402 40.22 Z M387.21 75.59 L387.21 73.2 357.79 73.25 357.79 75.64 Z M387.21 81.65 L387.21 79.32 357.79 79.37 357.79 81.7 Z M387.21 85.46 L357.79 85.51 357.79 87.9 387.21 87.85 Z M368.36 62.57 L368.78 59.82 358.7 59.82 358.21 62.57 Z M369.41 55.73 L369.9 52.91 359.95 52.91 359.46 55.78 Z M374.78 62.56 L385.01 62.56 385.35 59.81 375.2 59.81 Z M375.83 55.72 L385.85 55.72 386.13 52.9 376.33 52.9 Z" fill="#ffffff" fill-opacity="1" stroke="none"/>
 <path id="路徑-5" d="M427.58 77.29 C427.46 83.94 426.95 90.58 426.06 97.17 L421.89 95.91 C422.92 89.6 423.52 83.22 423.69 76.83 Z M449.78 68.15 C449.78 84.05 449.11 93.39 447.85 96.08 446.59 98.77 444.05 100.1 440.38 100.11 439.32 100.11 438.19 100.04 437.06 99.97 L435.64 94.05 C436.85 94.26 438.08 94.38 439.31 94.39 441.85 94.39 443.29 93.05 443.67 90.41 443.74 89.77 443.81 89 443.95 88.15 L441.06 89.29 C440.42 85.06 439.64 80.89 438.79 76.88 L442.03 75.96 C442.88 79.63 443.52 83.01 444.09 86.11 444.23 83.14 444.29 79.2 444.28 74.34 L424.47 74.34 424.41 37.81 449.59 37.81 449.59 44.08 441.64 44.08 441.64 48.45 447.63 48.45 447.63 54.09 441.64 54.09 441.64 58.38 447.63 58.38 447.63 64.02 441.64 64.02 441.64 68.11 Z M433.52 94.62 L429.29 95.19 C429.21 87.65 429.06 81.79 428.84 77.7 L432.51 77.27 C432.94 81.51 433.3 87.29 433.52 94.62 Z M430.77 44.13 L430.77 48.5 435.35 48.5 435.35 44.13 Z M430.77 58.44 L435.4 58.44 435.4 54.14 430.81 54.14 Z M430.77 68.18 L435.4 68.18 435.4 64.09 430.81 64.09 Z M439.41 90.87 L435.6 91.79 C435.1 86.43 434.53 81.64 433.81 77.55 L437.2 76.84 C438.09 81.14 438.81 85.8 439.45 90.87 Z M453.57 101.1 L448.34 96.53 C452.85 92.15 456.23 86.36 458.33 79.17 L464.47 81.63 C463.98 83.04 463.49 84.31 463.07 85.61 464.87 87.24 466.55 89.01 468.09 90.89 L463.58 95.41 C462.66 94 461.62 92.67 460.47 91.43 458.64 94.96 456.32 98.22 453.57 101.1 Z M452.5 57.17 L448.76 51.46 C455.51 47.86 461.2 42.55 465.24 36.06 L471.09 36.06 C474.36 41.66 479.99 46.66 487.97 51.01 L484.24 56.73 C482.33 55.67 480.57 54.61 478.95 53.49 L478.95 56.26 457.24 56.26 457.24 54.11 C455.72 55.22 454.14 56.23 452.51 57.16 L452.51 57.17 Z M467.39 59.76 L467.39 78.73 452.02 78.73 452.02 59.76 Z M461.76 65.19 L457.67 65.19 457.67 73.36 461.76 73.36 Z M468.12 42.41 C466.23 45.27 464.06 47.93 461.65 50.36 L474.91 50.36 C472.31 48.02 470.03 45.33 468.14 42.39 Z M469.98 101.07 L464.82 96.47 C469.33 92.23 472.63 86.52 474.81 79.39 L480.95 81.85 C480.39 83.4 479.9 84.89 479.36 86.29 482.51 89.34 485.42 92.64 488.05 96.15 L483.34 100.92 C481.37 97.77 479.12 94.8 476.62 92.05 474.86 95.35 472.63 98.39 470.01 101.05 Z M484.72 59.73 L484.72 78.7 469.42 78.7 469.42 59.73 Z M479.13 65.14 L475.11 65.14 475.11 73.32 479.13 73.32 Z" fill="#ffffff" fill-opacity="1" stroke="none"/>
 <path id="路徑-6" d="M507.96 56.49 L507.96 41.38 534.4 41.38 C533.46 39.6 532.39 37.88 531.22 36.24 L539.54 34.79 C540.53 36.76 541.52 38.95 542.44 41.34 L569.02 41.3 569.02 56.41 562.46 56.41 562.46 59.65 552.45 59.65 C556.99 63.23 561.22 67.19 565.09 71.48 L559.67 76.99 C558.41 75.21 557.05 73.52 555.58 71.92 551.21 72.28 546.76 72.64 542.25 72.93 L542.25 78.85 563.9 78.85 563.9 85.7 542.25 85.7 542.25 92.19 569.4 92.15 569.4 98.99 507.63 99.09 507.63 92.24 534.78 92.24 534.78 85.75 513.31 85.75 513.31 78.91 534.78 78.91 534.78 73.43 C528.58 73.8 522.23 74.16 515.75 74.45 L514.05 68.09 C514.6 67.95 515.14 67.73 515.64 67.45 517.89 66.39 520.7 63.78 524.23 59.68 L514.57 59.68 514.57 56.47 Z M561.55 48.22 L515.44 48.3 515.44 53.07 561.55 53 Z M525.9 67.89 C534.01 67.52 542.11 67.02 550.16 66.36 L545.91 62.56 548.86 59.67 532.64 59.67 C530.62 62.58 528.36 65.33 525.9 67.89 Z" fill="#ffffff" fill-opacity="1" stroke="none"/>
</svg>
