<?xml version="1.0" encoding="UTF-8"?>
<svg width="54px" height="50px" viewBox="0 0 54 50" version="1.1" xmlns="http://www.w3.org/2000/svg" xmlns:xlink="http://www.w3.org/1999/xlink">
    <!-- Generator: Sketch 52.6 (67491) - http://www.bohemiancoding.com/sketch -->
    <title>Group 16</title>
    <desc>Created with Sketch.</desc>
    <defs>
        <polygon id="path-1" points="0 50 54 50 54 0 0 0"></polygon>
    </defs>
    <g id="Symbols" stroke="none" stroke-width="1" fill="none" fill-rule="evenodd">
        <g id="icon/readrlogo">
            <g id="Group-16">
                <path d="M29.0978694,42.1651494 C29.0978694,41.807822 28.9768679,41.5486441 28.7354478,41.3873904 C28.493882,41.2262494 28.1798706,41.1456226 27.7934139,41.1456226 L27.2681356,41.1456226 L27.2681356,43.3318443 L27.6485229,43.3318443 C28.0832443,43.3318443 28.4334298,43.2338074 28.6992736,43.0375084 C28.9648746,42.8414347 29.0978694,42.550592 29.0978694,42.1651494 M30.3659079,42.1335973 C30.3659079,42.6312189 30.2450521,43.0498475 30.003632,43.3896522 C29.7620176,43.729626 29.4148426,43.9905505 28.9619127,44.1726511 L31,47 L29.423874,47 L27.6757628,44.4459147 L27.2681356,44.4459147 L27.2681356,47 L26,47 L26,40 L27.8025909,40 C28.1768602,40 28.5211218,40.0438349 28.8350846,40.1313919 C29.1489988,40.2190616 29.4193097,40.3520875 29.6457747,40.5308076 C29.8722396,40.7094713 30.0489347,40.9319698 30.1757143,41.1981906 C30.3025424,41.4645804 30.3659079,41.7762699 30.3659079,42.1335973" id="Fill-1" fill="#FFFFFF"></path>
                <polygon id="Fill-3" fill="#FFFFFF" points="32 40 35.9701512 40 35.9701512 41.1666948 33.3894838 41.1666948 33.3894838 42.858901 35.850969 42.858901 35.850969 44.0255395 33.3894838 44.0255395 33.3894838 45.8333615 36 45.8333615 36 47 32 47"></polygon>
                <path d="M39.9999511,41.1771746 L39.0881318,44.3618509 L40.9118682,44.3618509 L39.9999511,41.1771746 Z M43,47 L41.67773,47 L41.2491935,45.5285458 L38.7507088,45.5285458 L38.3221723,47 L37,47 L39.3070193,40 L40.6929807,40 L43,47 Z" id="Fill-5" fill="#FFFFFF"></path>
                <path d="M46.0816126,45.8333146 C46.4421957,45.8333146 46.7755928,45.7805779 47.0815852,45.674992 C47.3877964,45.569406 47.6512868,45.4163796 47.8724941,45.2156874 C48.0934278,45.0151642 48.2652955,44.7705811 48.3877691,44.4818818 C48.5102426,44.1933516 48.5715067,43.8660576 48.5715067,43.5 C48.5715067,43.1341114 48.5102426,42.8068175 48.3877691,42.5181182 C48.2652955,42.2295879 48.0934278,41.9850048 47.8724941,41.7843126 C47.6512868,41.5838458 47.3877964,41.430763 47.0815852,41.3251771 C46.7755928,41.2195348 46.4421957,41.1666854 46.0816126,41.1666854 L45.4286574,41.1666854 L45.4286574,45.8333146 L46.0816126,45.8333146 Z M44,40 L46.0510352,40 C46.6496185,40 47.1920794,40.0877254 47.6786369,40.2627817 C48.1648661,40.4380071 48.5798211,40.6815196 48.9234472,40.993263 C49.2669639,41.3051191 49.5322594,41.6747827 49.7193338,42.1020847 C49.9064081,42.529612 50,42.9955087 50,43.5 C50,44.0044913 49.9064081,44.470557 49.7193338,44.897859 C49.5322594,45.3253863 49.2669639,45.6950499 48.9234472,46.006737 C48.5798211,46.318593 48.1648661,46.5621619 47.6786369,46.7372183 C47.1920794,46.9124437 46.6496185,47 46.0510352,47 L44,47 L44,40 Z" id="Fill-7" fill="#FFFFFF"></path>
                <path d="M54,43.2398126 L53.7691563,43.2398126 C53.4280541,43.2398126 53.1437484,43.2941273 52.9163469,43.4024297 C52.6889455,43.5108956 52.5083366,43.6666485 52.3745742,43.8699063 L52.3745742,47 L51,47 L51,42.0507736 L52.3243931,42.0507736 L52.3243931,42.9247657 C52.4180322,42.6335803 52.5667467,42.4065156 52.770967,42.2438985 C52.9749184,42.0812813 53.2474452,42 53.5887088,42 C53.7424253,42 53.8795762,42.0169972 54,42.0507736 L54,43.2398126 Z" id="Fill-9" fill="#FFFFFF"></path>
                <mask id="mask-2" fill="white">
                    <use xlink:href="#path-1"></use>
                </mask>
                <g id="Clip-12"></g>
                <path d="M30.8889246,12.2708126 L34.181103,12.2708126 L34.181103,10.3333159 L30.8889246,10.3333159 L30.8889246,12.2708126 Z M37.0782157,31 C34.7942874,30.5677505 31.8538079,29.7927728 28.2551711,28.6750144 L29.3086618,26.7374653 C32.2057745,27.4255423 35.1029408,28.0713746 38,28.6750144 L37.0782157,31 Z M25.3580584,12.2708126 L28.6502368,12.2708126 L28.6502368,10.3333159 L25.3580584,10.3333159 L25.3580584,12.2708126 Z M21.1440422,24.7999686 L32.8642531,24.7999686 L32.8642531,23.3791586 L21.1440422,23.3791586 L21.1440422,24.7999686 Z M21.1440422,21.7000052 L32.8642531,21.7000052 L32.8642531,20.2791953 L21.1440422,20.2791953 L21.1440422,21.7000052 Z M21.1440422,18.7291874 L32.8642531,18.7291874 L32.8642531,17.1791796 L21.1440422,17.1791796 L21.1440422,18.7291874 Z M19.9588451,12.2708126 L22.9876642,12.2708126 L22.9876642,10.3333159 L19.9588451,10.3333159 L19.9588451,12.2708126 Z M18.115223,26.7374653 L35.8930187,26.7374653 L35.8930187,15.3708283 L18.115223,15.3708283 L18.115223,26.7374653 Z M17.1934388,13.9499659 L36.8148565,13.9499659 L36.8148565,8.783308 L17.1934388,8.783308 L17.1934388,13.9499659 Z M16.7983731,4.00413893 L16.7983731,1.93749672 L25.3580584,1.93749672 L25.3580584,0 L28.6502368,0 L28.6502368,1.93749672 L37.4732814,1.93749672 L37.4732814,4.00413893 L28.6502368,4.00413893 L28.6502368,5.55414679 L36.1563779,5.55414679 L36.1563779,7.36249803 L17.8518637,7.36249803 L17.8518637,5.55414679 L25.3580584,5.55414679 L25.3580584,4.00413893 L16.7983731,4.00413893 Z M17.0617324,31 C16.973125,30.8260939 16.7983731,30.4833132 16.5350138,29.9666789 C16.3580132,29.4499921 16.1829936,29.0625033 16.0082417,28.8041599 C18.7284074,28.2005201 21.5391079,27.5969327 24.4362206,26.9958087 L25.4897113,28.8041599 C22.8560114,29.6636273 20.0453109,30.3963602 17.0617324,31 Z M7.44855637,3.48745217 L15.3498167,3.48745217 L15.3498167,1.0333211 L7.44855637,1.0333211 L7.44855637,3.48745217 Z M6.79013139,17.4375229 L15.8765353,17.4375229 L15.8765353,14.9833394 L6.79013139,14.9833394 L6.79013139,17.4375229 Z M6.79013139,12.7874993 L15.8765353,12.7874993 L15.8765353,10.3333159 L6.79013139,10.3333159 L6.79013139,12.7874993 Z M6,8.26662124 L16.6666667,8.26662124 L16.6666667,5.55414679 L6,5.55414679 L6,8.26662124 Z" id="Fill-11" fill="#FFFFFF" mask="url(#mask-2)"></path>
                <path d="M9.68652152,28.6171538 L13.4477172,28.6171538 L13.4477172,22.6190426 L9.68652152,22.6190426 L9.68652152,28.6171538 Z M7,31 L16,31 L16,20 L7,20 L7,31 Z" id="Fill-13" fill="#FFFFFF" mask="url(#mask-2)"></path>
                <polygon id="Fill-14" fill="#FFFFFF" mask="url(#mask-2)" points="24.57 34.2391304 12.42 42.6630435 12.42 34.2391304 3.24 34.2391304 3.24 0 0 0 0 37.5 8.91 37.5 8.91 50 26.46 37.5 54 37.5 54 34.2391304"></polygon>
                <polygon id="Fill-15" fill="#FFFFFF" mask="url(#mask-2)" points="54 5.89285714 48.1071429 5.89285714 48.1071429 0 44.8928571 0 44.8928571 5.89285714 39 5.89285714 39 9.10714286 44.8928571 9.10714286 44.8928571 15 48.1071429 15 48.1071429 9.10714286 54 9.10714286"></polygon>
            </g>
        </g>
    </g>
</svg>